<?xml version="1.0" encoding="UTF-8" standalone="no"?>
<!-- Generator: Adobe Illustrator 18.0.0, SVG Export Plug-In . SVG Version: 6.00 Build 0)  -->

<svg
   version="1.1"
   id="Capa_1"
   x="0px"
   y="0px"
   viewBox="0 0 21 21"
   xml:space="preserve"
   sodipodi:docname="X.svg"
   inkscape:version="1.2.1 (9c6d41e410, 2022-07-14)"
   width="21"
   height="21"
   xmlns:inkscape="http://www.inkscape.org/namespaces/inkscape"
   xmlns:sodipodi="http://sodipodi.sourceforge.net/DTD/sodipodi-0.dtd"
   xmlns="http://www.w3.org/2000/svg"
   xmlns:svg="http://www.w3.org/2000/svg"><defs
   id="defs272" /><sodipodi:namedview
   id="namedview270"
   pagecolor="#ffffff"
   bordercolor="#000000"
   borderopacity="0.25"
   inkscape:showpageshadow="2"
   inkscape:pageopacity="0.0"
   inkscape:pagecheckerboard="0"
   inkscape:deskcolor="#d1d1d1"
   showgrid="false"
   inkscape:zoom="20.58603"
   inkscape:cx="8.3551805"
   inkscape:cy="5.5863125"
   inkscape:window-width="1920"
   inkscape:window-height="1017"
   inkscape:window-x="-8"
   inkscape:window-y="-8"
   inkscape:window-maximized="1"
   inkscape:current-layer="Capa_1" />
<path
   d="m 12.755234,10.500391 7.056859,-7.0568591 c 0.250542,-0.2506012 0.250542,-0.6561314 0,-0.9066496 L 18.463422,1.1876312 C 18.343304,1.067589 18.180303,1 18.010169,1 17.839993,1 17.676991,1.067589 17.556874,1.1876312 L 10.500016,8.2450269 3.4431576,1.1876312 C 3.3230399,1.067589 3.1600387,1 2.989862,1 2.8197275,1 2.656684,1.067589 2.5366087,1.1876312 L 1.1879388,2.5368823 c -0.25058508,0.2505182 -0.25058508,0.6560484 0,0.9066496 l 7.0568584,7.0569021 -7.0561579,7.056034 c -0.25046097,0.2506 -0.25046097,0.656131 0,0.906649 l 1.348753,1.349251 c 0.1200345,0.120043 0.2830765,0.187631 0.4532533,0.187631 0.1701769,0 0.333178,-0.06758 0.4533366,-0.187631 l 7.0559938,-7.056571 7.056032,7.056571 c 0.120118,0.120043 0.283119,0.187631 0.453295,0.187631 0.170218,0 0.333221,-0.06758 0.453253,-0.187631 l 1.348753,-1.349251 c 0.250461,-0.250518 0.250461,-0.656049 0,-0.906649 z"
   id="path237"
   style="stroke-width:0.0412365" />

</svg>
